<mxfile host="app.diagrams.net" modified="2024-05-25T11:45:27.223Z" agent="Mozilla/5.0 (X11; Linux x86_64) AppleWebKit/537.36 (KHTML, like Gecko) Chrome/124.0.0.0 Safari/537.36" version="24.4.8" etag="1_JScvsem2-nnNmjv_oH" type="github">
  <diagram name="Page-1" id="kNZiL3mooGra2UF5j75x">
    <mxGraphModel>
      <root>
        <mxCell id="0" />
        <mxCell id="1" parent="0" />
      </root>
    </mxGraphModel>
  </diagram>
</mxfile>
